<svg width="33" height="33" viewBox="0 0 33 33" fill="none" xmlns="http://www.w3.org/2000/svg">
<path d="M16.5037 8.04481C11.8215 8.04481 8.04478 11.8215 8.04478 16.5037C8.04478 21.1859 11.8215 24.9626 16.5037 24.9626C21.1859 24.9626 24.9626 21.1859 24.9626 16.5037C24.9626 11.8215 21.1859 8.04481 16.5037 8.04481ZM16.5037 22.0031C13.4779 22.0031 11.0043 19.5368 11.0043 16.5037C11.0043 13.4706 13.4706 11.0043 16.5037 11.0043C19.5368 11.0043 22.0031 13.4706 22.0031 16.5037C22.0031 19.5368 19.5294 22.0031 16.5037 22.0031ZM27.2816 7.6988C27.2816 8.79573 26.3982 9.6718 25.3086 9.6718C24.2117 9.6718 23.3356 8.78837 23.3356 7.6988C23.3356 6.60923 24.219 5.72579 25.3086 5.72579C26.3982 5.72579 27.2816 6.60923 27.2816 7.6988ZM32.884 9.70125C32.7589 7.05831 32.1552 4.7172 30.219 2.78837C28.2902 0.859532 25.9491 0.255852 23.3061 0.123336C20.5822 -0.0312651 12.4178 -0.0312651 9.69386 0.123336C7.05828 0.24849 4.71718 0.85217 2.78098 2.781C0.844785 4.70984 0.248466 7.05094 0.115951 9.69389C-0.0386503 12.4178 -0.0386503 20.5822 0.115951 23.3062C0.241104 25.9491 0.844785 28.2902 2.78098 30.219C4.71718 32.1479 7.05092 32.7516 9.69386 32.8841C12.4178 33.0387 20.5822 33.0387 23.3061 32.8841C25.9491 32.7589 28.2902 32.1552 30.219 30.219C32.1478 28.2902 32.7515 25.9491 32.884 23.3062C33.0386 20.5822 33.0386 12.4252 32.884 9.70125ZM29.365 26.2289C28.7908 27.6718 27.6791 28.7835 26.2288 29.3651C24.0571 30.2264 18.9037 30.0276 16.5037 30.0276C14.1037 30.0276 8.94294 30.219 6.77853 29.3651C5.33558 28.7908 4.22393 27.6792 3.64233 26.2289C2.78098 24.0571 2.97975 18.9037 2.97975 16.5037C2.97975 14.1037 2.78834 8.94297 3.64233 6.77855C4.21656 5.33561 5.32822 4.22395 6.77853 3.64235C8.95031 2.781 14.1037 2.97978 16.5037 2.97978C18.9037 2.97978 24.0644 2.78837 26.2288 3.64235C27.6718 4.21659 28.7834 5.32824 29.365 6.77855C30.2264 8.95033 30.0276 14.1037 30.0276 16.5037C30.0276 18.9037 30.2264 24.0644 29.365 26.2289Z" fill="#23D4BA"/>
</svg>
