<svg width="33" height="33" viewBox="0 0 33 33" fill="none" xmlns="http://www.w3.org/2000/svg">
<path d="M3.09375 0C1.38574 0 0 1.84766 0 4.125C0 5.42266 0.457617 6.64297 1.2375 7.425L15.2625 21.45C15.9973 22.1805 17.0027 22.1805 17.7375 21.45L31.7625 7.425C32.5424 6.64297 33 5.42266 33 4.125C33 1.84766 31.6143 0 29.9062 0H3.09375ZM0 9.625V27.5C0 30.5336 1.8498 33 4.125 33H28.875C31.1502 33 33 30.5336 33 27.5V9.625L18.975 23.65C17.5055 25.1195 15.4945 25.1195 14.025 23.65L0 9.625Z" fill="#23D4BA"/>
</svg>
