<svg width="33" height="33" viewBox="0 0 33 33" fill="none" xmlns="http://www.w3.org/2000/svg">
<g clip-path="url(#clip0_20_60)">
<path d="M33 16.5C33 7.38633 25.6137 0 16.5 0C7.38633 0 0 7.38633 0 16.5C0 24.2344 5.33027 30.7313 12.5168 32.5166V21.5402H9.11367V16.5H12.5168V14.3279C12.5168 8.71406 15.0563 6.11016 20.5734 6.11016C21.6176 6.11016 23.4223 6.31641 24.1635 6.52266V11.0859C23.7768 11.0473 23.1 11.0215 22.2557 11.0215C19.5486 11.0215 18.5045 12.0463 18.5045 14.7082V16.5H23.8928L22.9646 21.5402H18.498V32.8775C26.6707 31.8914 33 24.9369 33 16.5Z" fill="#23D4BA"/>
</g>
<defs>
<clipPath id="clip0_20_60">
<rect width="33" height="33" fill="white"/>
</clipPath>
</defs>
</svg>
